<svg id="Layer_1" data-name="Layer 1" xmlns="http://www.w3.org/2000/svg" viewBox="0 0 566.93 606.49"><defs><style>.cls-1{fill:#3b3b3c;}.cls-2{fill:#4cb592;}.cls-3{fill:#86cca5;}.cls-4{fill:#00a597;}</style></defs><path class="cls-1" d="M228.42,438h3l2.66-3.1,3,3.53a1.37,1.37,0,0,1,.5.84q0,.33-.87.33h-8.35v3.28a23.49,23.49,0,0,1,6.65,3.07,3.93,3.93,0,0,1,1.7,3,4.54,4.54,0,0,1-.68,2.6c-.45.66-.9,1-1.33,1s-.88-.54-1.33-1.61a20.27,20.27,0,0,0-5-6.93v15.22q0,5.7.09,8.2t.09,3a1.9,1.9,0,0,1-.24.93,5,5,0,0,1-1.71,1.21,5.56,5.56,0,0,1-2,.77c-.37,0-.55-.41-.55-1.24l.31-5.81q.18-3.84.18-8.42V447.23q-5.39,10.08-10.33,15.47l-.87-.75q5.56-8.42,10.21-22.34h-4.27a10.58,10.58,0,0,0-4.14.69L213,437.7a38.7,38.7,0,0,0,5,.31h6.56V426.06q0-6.24-.18-10l5.07,2.23c.62.21.93.44.93.71s-.25.61-.74,1l-1.24,1.05v14.42a63.18,63.18,0,0,0,6.12-12.44l3.84,2.79c.5.33.74.62.74.86s-.22.48-.68.69a23.13,23.13,0,0,0-3.52,2.9,93,93,0,0,0-6.5,6.69Zm-10.65-15a30.21,30.21,0,0,1,3.9,4.73,7.43,7.43,0,0,1,1.36,3.9,4.9,4.9,0,0,1-.74,2.85c-.49.72-1,1.08-1.48,1.08a1.76,1.76,0,0,1-1.33-.62,2.33,2.33,0,0,1-.56-1.76c0-.76,0-1.17,0-1.21a17.44,17.44,0,0,0-1.92-8.35Zm36.51,15.22h9.53l3.34-4,3.72,4.34a1.14,1.14,0,0,1,.49.83c0,.27-.27.4-.8.4H243.64a11.16,11.16,0,0,0-4.15.68l-2.16-2.6a36.9,36.9,0,0,0,5,.31H250v-5.57h-5.81a10.07,10.07,0,0,0-4.09.68l-2.23-2.66a32.3,32.3,0,0,0,5.08.38h7v-5.2h-5.13a13.14,13.14,0,0,0-4.09.55l-2.16-2.59a33.36,33.36,0,0,0,5.07.37H250c0-3.76-.06-6.52-.18-8.3l5.19,1.92c.46.17.67.37.65.59a1.19,1.19,0,0,1-.15.53,4.25,4.25,0,0,1-.62.62l-.56.68v4h7.37l3.46-4.09,3.78,4.46a1.55,1.55,0,0,1,.49.93c0,.24-.29.37-.86.37H254.28v5.2h4.52l3-3.72,3.47,4.09a1.79,1.79,0,0,1,.49.93c0,.2-.31.3-.92.3H254.28Zm-9.84,21.91v10.4a2,2,0,0,1-.34,1.29,5.24,5.24,0,0,1-1.67,1.09,5.48,5.48,0,0,1-1.76.65c-.29,0-.43-.29-.43-.87s0-1.74.12-3.49.12-4.16.12-7.21V448.09c0-2.14-.06-4.27-.18-6.37l4.21,2.85h15l2.17-2.54,4,3.15c.45.29.68.56.68.81s-.29.6-.87,1.05l-.86.68v18.87a8.54,8.54,0,0,1-.47,3.38,6.74,6.74,0,0,1-2.75,2.23,9.88,9.88,0,0,1-2.82,1.26c-.35,0-.59-.33-.71-1a4.49,4.49,0,0,0-1.55-2.47,21.3,21.3,0,0,0-5-1.8l.19-1.05c3.09.29,5.2.44,6.31.44a3.51,3.51,0,0,0,2.07-.38,1.9,1.9,0,0,0,.4-1.42v-5.63Zm0-13.92v5.13h15.78v-5.13Zm0,6.8v5.45h15.78V453Z"/><path class="cls-1" d="M293.89,430.46c.16-.7.33-1.57.49-2.6s.29-2,.37-2.79L299,428c.46.21.63.43.53.65a2.47,2.47,0,0,1-.65.77l-.93.75-1.8,7.24h7.31V423H295.5a11.8,11.8,0,0,0-2.39.19,14,14,0,0,0-1.76.49l-2.23-2.78a23.11,23.11,0,0,0,2.57.31c.76,0,1.58.06,2.44.06h14l3.34-4,3.84,4.58c.7.78.55,1.17-.44,1.17h-7.67v14.36h.68l2.6-3,2.35,2.84a99.65,99.65,0,0,0,3.81-10.36q1.64-5.35,2.88-11.36l4.2,2.72c.5.34.77.61.81.84s-.21.48-.74.77-1.28,1.59-2.11,3.78c-.29.82-.6,1.65-.93,2.47s-.7,1.65-1.11,2.48h17.64l3.4-4,3.9,4.64c.24.37.35.64.31.8s-.29.25-.75.25H331.7v10.33h4.14l3-3.59,3.41,4.09c.62.7.47,1-.44,1H331.7v10.4h4.08l3.34-4,3.65,4.45c.37.41.52.69.44.84s-.36.21-.81.21H331.7v10.58h6l3.4-4.08,3.84,4.77c.37.37.52.62.46.77s-.34.22-.83.22H320.06v2.78a2.71,2.71,0,0,1-.43,1.64,7.33,7.33,0,0,1-2,1.52c-.7.45-1.17.58-1.4.4s-.29-1-.21-2.32q0-1,.06-2.82c0-1.22.08-2.48.12-3.8s.09-2.63.13-3.93.06-2.38.06-3.25V435.28a53.85,53.85,0,0,1-3.16,5.39c-1.15,1.73-2.33,3.42-3.52,5.07l-.62-.62c.53-.95,1-1.9,1.51-2.88s.94-1.94,1.4-2.93h-4.77v24.93c0,1.28,0,2.29-.09,3a4.36,4.36,0,0,1-.5,1.82,4.17,4.17,0,0,1-1.23,1.3c-.56.39-1.31.86-2.26,1.39a1,1,0,0,1-1,.22c-.31-.1-.49-.4-.53-.9a3.54,3.54,0,0,0-1.58-2.47,11.28,11.28,0,0,0-4.61-1.74V466c1.9.2,3.39.33,4.46.37a11,11,0,0,0,2.41-.1c.54-.1.86-.3,1-.58a3.46,3.46,0,0,0,.16-1.12V445.93q-1.49,3-3,5.38a40.92,40.92,0,0,1-3.19,4.49,53,53,0,0,1-3.68,4q-2,1.95-4.46,4.05l-.86-1a64.83,64.83,0,0,0,8.38-10.95,80,80,0,0,0,6.22-12.62h-7.24a2.29,2.29,0,0,1-1.05,1.54,8.53,8.53,0,0,1-2.29.5c-.66.08-1.06,0-1.21-.25s-.05-.72.28-1.42a18.63,18.63,0,0,0,.9-2.35c.27-.87.5-1.74.71-2.6Zm34-.25h-7.8v10.33h7.8Zm0,11.88h-7.8v10.4h7.8Zm0,11.94h-7.8v10.58h7.8Zm6.62-31.56a3.38,3.38,0,0,1-.31,1.43,4.08,4.08,0,0,1-1.86,2,2.34,2.34,0,0,1-1,.28c-.71,0-1.16-.69-1.37-2.05a18.46,18.46,0,0,0-1.3-4.2,13.21,13.21,0,0,0-2.35-3.41l.56-.68a24.22,24.22,0,0,1,3.81,1.61A10.94,10.94,0,0,1,333,419a4.56,4.56,0,0,1,1.52,3.46Z"/><path class="cls-2" d="M301.17,237.6c4.06-5.6,7.38-15.85,7.38-22.77V0H292.19V237.43c0,6.92,3.32,8,7.38,2.39Z"/><path class="cls-3" d="M335,190.87c4.06-5.6,7.38-15.85,7.38-22.77V0H326V190.7c0,6.92,3.31,8,7.37,2.39Z"/><path class="cls-3" d="M368.83,144.13c4.05-5.6,7.37-15.85,7.37-22.77V0H359.85V144c0,6.92,3.32,8,7.37,2.39Z"/><path class="cls-4" d="M199.67,377.83c4.06-5.61,7.38-15.86,7.38-22.78V0H190.7V377.65c0,6.92,3.32,8,7.37,2.39Z"/><path class="cls-2" d="M267.34,284.34c4.05-5.6,7.37-15.85,7.37-22.77V0H258.36V284.17c0,6.92,3.32,8,7.38,2.39Z"/><path class="cls-4" d="M233.51,331.09c4.05-5.61,7.37-15.86,7.37-22.78V0H224.53V330.91c0,6.92,3.32,8,7.37,2.39Z"/><path class="cls-1" d="M103.15,538.82c.33,0,.5.12.5.29a75.1,75.1,0,0,0-.75,10.73,1.27,1.27,0,0,1-.29.95,1.44,1.44,0,0,1-1,.29H67.48c-.11,0-.16-.17-.16-.5s.05-.49.16-.49a20.14,20.14,0,0,0,4.75-.41,2.92,2.92,0,0,0,2.06-1.61,9.47,9.47,0,0,0,.54-3.68V506.17a9.11,9.11,0,0,0-.54-3.64,3.07,3.07,0,0,0-2.06-1.61,18.25,18.25,0,0,0-4.75-.45c-.11,0-.16-.17-.16-.5s.05-.49.16-.49h32.7a.66.66,0,0,1,.74.74l.17,10c0,.17-.16.25-.46.25s-.45-.08-.45-.25A9.61,9.61,0,0,0,98,503.52a7.51,7.51,0,0,0-5.86-2.47h-5.7a18.57,18.57,0,0,0-4.62.41,3,3,0,0,0-2,1.57,9.12,9.12,0,0,0-.53,3.63v16.76h10.9c2.53,0,4.29-.42,5.28-1.28s1.49-2.32,1.49-4.42c0-.11.16-.16.49-.16s.5.05.5.16l-.09,6.53c0,1.59,0,2.78.09,3.55l.08,3.88c0,.11-.17.16-.5.16s-.49-.05-.49-.16q0-3.72-1.57-5.2T89.86,525H79.21v19.07a8.52,8.52,0,0,0,.53,3.51,3,3,0,0,0,2,1.53,18.94,18.94,0,0,0,4.66.41H94a7.06,7.06,0,0,0,5.65-2.89,15.17,15.17,0,0,0,3-7.6C102.66,538.86,102.82,538.79,103.15,538.82Z"/><path class="cls-1" d="M126.68,544.06a8.49,8.49,0,0,0,.54,3.51,2.94,2.94,0,0,0,2,1.53,18.52,18.52,0,0,0,4.58.41h10.57q8.18,0,9.66-10.49c0-.16.15-.23.45-.2s.46.12.46.29a97.42,97.42,0,0,0-.75,10.73,1.49,1.49,0,0,1-.24.95,1.31,1.31,0,0,1-1,.29H115c-.11,0-.17-.17-.17-.5s.06-.49.17-.49a20.1,20.1,0,0,0,4.74-.41,3,3,0,0,0,2.07-1.61,9.7,9.7,0,0,0,.53-3.68V506.17a9.33,9.33,0,0,0-.53-3.64,3.12,3.12,0,0,0-2.07-1.61,18.21,18.21,0,0,0-4.74-.45c-.11,0-.17-.17-.17-.5s.06-.49.17-.49l4,.08c2.31.11,4.13.17,5.45.17,1.49,0,3.39-.06,5.7-.17l3.88-.08c.11,0,.16.16.16.49s-.05.5-.16.5a18.25,18.25,0,0,0-4.75.45,3.06,3.06,0,0,0-2.06,1.65,9.47,9.47,0,0,0-.54,3.68Z"/><path class="cls-1" d="M199.17,538.82c.33,0,.5.12.5.29a75.1,75.1,0,0,0-.75,10.73,1.27,1.27,0,0,1-.29.95,1.44,1.44,0,0,1-1,.29H163.5c-.11,0-.16-.17-.16-.5s0-.49.16-.49a20.14,20.14,0,0,0,4.75-.41,2.92,2.92,0,0,0,2.06-1.61,9.47,9.47,0,0,0,.54-3.68V506.17a9.11,9.11,0,0,0-.54-3.64,3.07,3.07,0,0,0-2.06-1.61,18.25,18.25,0,0,0-4.75-.45c-.11,0-.16-.17-.16-.5s0-.49.16-.49h32.7a.66.66,0,0,1,.74.74l.17,10c0,.17-.15.25-.46.25s-.45-.08-.45-.25a9.61,9.61,0,0,0-2.23-6.69,7.51,7.51,0,0,0-5.86-2.47h-5.7a18.57,18.57,0,0,0-4.62.41,3,3,0,0,0-2,1.57,9.3,9.3,0,0,0-.53,3.63v16.76h10.9c2.53,0,4.29-.42,5.28-1.28s1.49-2.32,1.49-4.42c0-.11.16-.16.49-.16s.5.05.5.16l-.09,6.53c0,1.59,0,2.78.09,3.55l.08,3.88c0,.11-.17.16-.5.16s-.49-.05-.49-.16q0-3.72-1.57-5.2T185.88,525H175.23v19.07a8.69,8.69,0,0,0,.53,3.51,3,3,0,0,0,2,1.53,19,19,0,0,0,4.66.41H190a7.06,7.06,0,0,0,5.65-2.89,15.17,15.17,0,0,0,3-7.6C198.68,538.86,198.84,538.79,199.17,538.82Z"/><path class="cls-1" d="M225.8,548.4a25.82,25.82,0,0,1-10.2-9.91,27.12,27.12,0,0,1-3.55-13.67,24.38,24.38,0,0,1,4-14,25.8,25.8,0,0,1,11-9.12,37.24,37.24,0,0,1,15.64-3.18,35.58,35.58,0,0,1,8.34.91,21.44,21.44,0,0,1,6.44,2.56,2.07,2.07,0,0,1,.66.62,6.62,6.62,0,0,1,.17,1.19l1,9.25c0,.17-.16.28-.46.33s-.48,0-.53-.16q-1.83-6.86-5.74-10.16t-11-3.3a25.61,25.61,0,0,0-12.3,2.93,21.51,21.51,0,0,0-8.58,8.34,24.71,24.71,0,0,0-3.14,12.67,30.86,30.86,0,0,0,2.85,13A24.3,24.3,0,0,0,229.1,547q5.9,4,14.57,4,6.11,0,8.63-2.35t2.52-7.8a21.29,21.29,0,0,0-.58-6,3.54,3.54,0,0,0-2.48-2.27,26.06,26.06,0,0,0-6.6-.57c-.33,0-.5-.22-.5-.67a.81.81,0,0,1,.13-.45c.08-.14.17-.21.28-.21,4.24.28,7.66.42,10.24.42s5.12-.09,7.93-.25a.35.35,0,0,1,.29.21.73.73,0,0,1,.12.37c0,.38-.14.58-.41.58a5.29,5.29,0,0,0-3.06.53A3.44,3.44,0,0,0,259,535a58,58,0,0,0-.25,6.61,33.5,33.5,0,0,0,.29,5.28,16.23,16.23,0,0,1,.29,2,1,1,0,0,1-.17.66,1.91,1.91,0,0,1-.74.33,79.93,79.93,0,0,1-17,2.23A31.8,31.8,0,0,1,225.8,548.4Z"/><path class="cls-1" d="M328.3,550.58c0,.33-.11.5-.33.5-1,0-2.59-.05-4.79-.17s-3.63-.16-4.62-.16c-1.16,0-2.67.06-4.54.16s-3.09.17-4,.17c-.22,0-.33-.17-.33-.5s.11-.49.33-.49a13.9,13.9,0,0,0,4.88-.62,2.14,2.14,0,0,0,1.48-2.11,8.69,8.69,0,0,0-.91-3.22l-7.76-16.76H288.09l-5.61,13.54a12.89,12.89,0,0,0-1.16,4.63,3.67,3.67,0,0,0,2,3.47,13.66,13.66,0,0,0,6.19,1.07c.28,0,.42.16.42.49s-.14.5-.42.5c-1,0-2.42-.05-4.29-.17-2.09-.1-3.91-.16-5.45-.16-1.37,0-3,.06-4.87.16-1.65.12-3,.17-4.05.17-.27,0-.41-.17-.41-.5s.14-.49.41-.49a7.43,7.43,0,0,0,7-3.8,35.78,35.78,0,0,0,3.1-6.11l17.25-41.53a.61.61,0,0,1,.54-.25c.25,0,.4.09.45.25l19.16,41.12a43.82,43.82,0,0,0,3.38,6.4,10.12,10.12,0,0,0,2.93,3.05,6.38,6.38,0,0,0,3.35.87C328.19,550.09,328.3,550.25,328.3,550.58ZM288.75,525.9H307l-9.66-20.73Z"/><path class="cls-1" d="M390.39,500c0,.33-.09.5-.25.5-2.37,0-4,.58-5,1.73s-1.44,3.14-1.44,5.95V552c0,.11-.14.19-.41.25a.64.64,0,0,1-.58-.09l-37.32-45.9-1.4-1.57v37.81c0,2.81.46,4.78,1.4,5.91s2.56,1.69,4.87,1.69c.17,0,.25.16.25.49s-.08.5-.25.5c-1.32,0-2.34,0-3.05-.08l-4-.09-4,.09c-.72,0-1.79.08-3.22.08-.11,0-.17-.17-.17-.5s.06-.49.17-.49c2.36,0,4-.55,4.87-1.65s1.32-3.08,1.32-6V503a9.06,9.06,0,0,0-5.95-2.48c-.16,0-.24-.17-.24-.5s.08-.49.24-.49l3,.08c.6.06,1.46.08,2.56.08.93,0,1.7,0,2.31-.08s1.07-.08,1.4-.08a1.46,1.46,0,0,1,.95.29,4,4,0,0,1,.87,1.19,24.43,24.43,0,0,0,2,2.81l32.61,40.54V508.15q0-4.22-1.32-5.95t-4.79-1.73c-.11,0-.16-.17-.16-.5s.05-.49.16-.49l3.14.08c1.65.11,3,.17,4,.17s2.29-.06,4.05-.17l3.22-.08C390.3,499.48,390.39,499.64,390.39,500Z"/><path class="cls-1" d="M438.93,499.35a32.14,32.14,0,0,1,7.35,2.77,2.09,2.09,0,0,1,.62.54,4.35,4.35,0,0,1,.21,1.28l1,9.41c0,.16-.16.26-.46.29s-.48,0-.53-.21q-1.82-6.85-6-10.28T430,499.73a25.75,25.75,0,0,0-12.75,3,21.05,21.05,0,0,0-8.5,8.71,27.59,27.59,0,0,0-3,13.17,26.7,26.7,0,0,0,3.35,13.09,26.2,26.2,0,0,0,9,9.66,22.22,22.22,0,0,0,12.1,3.59q13.71,0,17.5-13.46c0-.11.14-.17.42-.17s.58.09.58.25l-.67,8.75a3.21,3.21,0,0,1-.24,1.24,2.5,2.5,0,0,1-.66.58,34.65,34.65,0,0,1-8.05,3.1,40.87,40.87,0,0,1-9,.86,33.34,33.34,0,0,1-15.32-3.42,25.79,25.79,0,0,1-10.52-9.66,26.92,26.92,0,0,1-3.8-14.33,24.82,24.82,0,0,1,3.8-13.7,25.25,25.25,0,0,1,10.52-9.21A34.57,34.57,0,0,1,430,498.57,41.8,41.8,0,0,1,438.93,499.35Z"/><path class="cls-1" d="M496.56,538.82c.33,0,.5.12.5.29a75.1,75.1,0,0,0-.75,10.73,1.27,1.27,0,0,1-.29.95,1.44,1.44,0,0,1-1,.29h-34.1c-.11,0-.16-.17-.16-.5s0-.49.16-.49a20.14,20.14,0,0,0,4.75-.41,2.92,2.92,0,0,0,2.06-1.61,9.47,9.47,0,0,0,.54-3.68V506.17a9.11,9.11,0,0,0-.54-3.64,3.07,3.07,0,0,0-2.06-1.61,18.25,18.25,0,0,0-4.75-.45c-.11,0-.16-.17-.16-.5s0-.49.16-.49h32.7a.66.66,0,0,1,.74.74l.17,10c0,.17-.16.25-.46.25s-.45-.08-.45-.25a9.61,9.61,0,0,0-2.23-6.69,7.51,7.51,0,0,0-5.86-2.47h-5.7a18.57,18.57,0,0,0-4.62.41,3,3,0,0,0-2,1.57,9.12,9.12,0,0,0-.53,3.63v16.76h10.9c2.53,0,4.29-.42,5.28-1.28s1.49-2.32,1.49-4.42c0-.11.16-.16.49-.16s.5.05.5.16l-.09,6.53c0,1.59,0,2.78.09,3.55l.08,3.88c0,.11-.17.16-.5.16s-.49-.05-.49-.16q0-3.72-1.57-5.2T483.27,525H472.62v19.07a8.52,8.52,0,0,0,.53,3.51,3,3,0,0,0,2,1.53,18.94,18.94,0,0,0,4.66.41h7.6a7.06,7.06,0,0,0,5.65-2.89,15.17,15.17,0,0,0,3-7.6C496.07,538.86,496.23,538.79,496.56,538.82Z"/><path class="cls-1" d="M0,579.66H16.62v2.39H2.7v9.35H15.76v2.39H2.7v12.32H0Z"/><path class="cls-1" d="M25,579.66v26.45H22.23V579.66Z"/><path class="cls-1" d="M33.52,606.11V579.66h3.79c4,6.27,13.13,20.32,14.73,23.19h0c-.24-3.63-.21-7.64-.21-12V579.66h2.67v26.45H51c-3.77-6-13.14-20.78-14.94-23.71h0c.19,3.26.17,7.4.17,12.19v11.52Z"/><path class="cls-1" d="M66.06,597.51l-3.16,8.6H60.16l9.67-26.45h3.31l10.09,26.45H80.29L77,597.51Zm10.2-2.39C73.48,587.67,72,583.93,71.45,582h0c-.65,2.11-2.29,6.7-4.54,13.08Z"/><path class="cls-1" d="M88.66,606.11V579.66h3.79c4,6.27,13.13,20.32,14.73,23.19h0c-.24-3.63-.21-7.64-.21-12V579.66h2.67v26.45h-3.54c-3.77-6-13.14-20.78-14.94-23.71h0c.19,3.26.17,7.4.17,12.19v11.52Z"/><path class="cls-1" d="M138.53,598.85c-1.23,4.33-4.47,7.57-10.3,7.57-7.82,0-11.86-6-11.86-13.48,0-7.16,4-13.66,11.94-13.66,6,0,9.41,3.35,10.25,7.77h-2.73c-1.11-3.19-3.21-5.41-7.65-5.41-6.3,0-8.92,5.69-8.92,11.23s2.54,11.2,9.07,11.2c4.25,0,6.28-2.28,7.47-5.22Z"/><path class="cls-1" d="M147.75,579.66v26.45H145V579.66Z"/><path class="cls-1" d="M159.27,597.51l-3.16,8.6h-2.75L163,579.66h3.31l10.09,26.45H173.5l-3.24-8.6Zm10.2-2.39c-2.78-7.45-4.25-11.19-4.81-13.08h0c-.65,2.11-2.29,6.7-4.54,13.08Z"/><path class="cls-1" d="M181.87,579.66h2.73v24.06h14.16l-.44,2.39H181.87Z"/><path class="cls-1" d="M235.34,598.85c-1.23,4.33-4.47,7.57-10.31,7.57-7.81,0-11.85-6-11.85-13.48,0-7.16,4-13.66,11.93-13.66,6,0,9.42,3.35,10.25,7.77h-2.73c-1.1-3.19-3.2-5.41-7.64-5.41-6.3,0-8.92,5.69-8.92,11.23s2.54,11.2,9.07,11.2c4.25,0,6.28-2.28,7.46-5.22Z"/><path class="cls-1" d="M264.76,592.71c0,7.25-4,13.78-12.31,13.78-7.68,0-12.07-6-12.07-13.61s4.35-13.6,12.35-13.6C260.15,579.28,264.76,584.93,264.76,592.71Zm-21.49.06c0,5.92,3.2,11.33,9.31,11.33,6.59,0,9.29-5.35,9.29-11.34s-3.06-11.09-9.24-11.09C246.13,581.67,243.27,587,243.27,592.77Z"/><path class="cls-1" d="M294.43,594.35c0-5.06.05-10,.16-12.74h-.13c-1.1,3.89-6,16.16-9.27,24.5h-2.54c-2.45-6.6-7.55-20.31-8.76-24.54h-.09c.19,3,.28,9.07.28,13.6v10.94h-2.64V579.66h4.08c3.38,8.68,7.59,20,8.54,23.13h.07c.62-2.21,5.53-14.69,9-23.13h4v26.45h-2.69Z"/><path class="cls-1" d="M328.64,594.35c0-5.06,0-10,.16-12.74h-.13c-1.1,3.89-6,16.16-9.27,24.5h-2.55c-2.44-6.6-7.54-20.31-8.75-24.54H308c.2,3,.28,9.07.28,13.6v10.94h-2.63V579.66h4.08c3.38,8.68,7.58,20,8.54,23.13h.07c.62-2.21,5.53-14.69,9-23.13h4v26.45h-2.69Z"/><path class="cls-1" d="M342.46,579.66v16c0,6.68,3.76,8.44,7.37,8.44,4.26,0,7.36-1.84,7.36-8.44v-16H360v15.83c0,8.41-4.59,10.93-10.19,10.93-5.41,0-10.1-2.75-10.1-10.63V579.66Z"/><path class="cls-1" d="M368.13,606.11V579.66h3.79c4,6.27,13.13,20.32,14.73,23.19h.05c-.25-3.63-.21-7.64-.21-12V579.66h2.66v26.45h-3.54c-3.77-6-13.13-20.78-14.94-23.71h0c.19,3.26.17,7.4.17,12.19v11.52Z"/><path class="cls-1" d="M400.44,579.66v26.45h-2.73V579.66Z"/><path class="cls-1" d="M429.29,598.85c-1.22,4.33-4.46,7.57-10.3,7.57-7.81,0-11.85-6-11.85-13.48,0-7.16,4-13.66,11.93-13.66,6,0,9.41,3.35,10.25,7.77h-2.73c-1.1-3.19-3.21-5.41-7.64-5.41-6.31,0-8.92,5.69-8.92,11.23s2.54,11.2,9.07,11.2c4.24,0,6.27-2.28,7.46-5.22Z"/><path class="cls-1" d="M438.71,597.51l-3.17,8.6H432.8l9.68-26.45h3.3l10.09,26.45h-2.93l-3.25-8.6Zm10.2-2.39c-2.79-7.45-4.25-11.19-4.81-13.08h0c-.65,2.11-2.3,6.7-4.54,13.08Z"/><path class="cls-1" d="M463.48,582.05h-8.81v-2.39h20.41v2.39h-8.84v24.06h-2.76Z"/><path class="cls-1" d="M482.67,579.66v26.45h-2.73V579.66Z"/><path class="cls-1" d="M513.74,592.71c0,7.25-4,13.78-12.31,13.78-7.68,0-12.07-6-12.07-13.61s4.35-13.6,12.35-13.6C509.13,579.28,513.74,584.93,513.74,592.71Zm-21.49.06c0,5.92,3.2,11.33,9.31,11.33,6.59,0,9.29-5.35,9.29-11.34s-3.06-11.09-9.24-11.09C495.1,581.67,492.25,587,492.25,592.77Z"/><path class="cls-1" d="M520.42,606.11V579.66h3.79c4,6.27,13.13,20.32,14.73,23.19h0c-.25-3.63-.22-7.64-.22-12V579.66h2.67v26.45H537.9c-3.77-6-13.14-20.78-14.94-23.71h0c.19,3.26.17,7.4.17,12.19v11.52Z"/><path class="cls-1" d="M550.51,598.89c.77,3.36,3.06,5.27,7.21,5.27,4.56,0,6.33-2.2,6.33-4.9s-1.33-4.52-7-5.89c-5.93-1.45-8.26-3.41-8.26-7.18s2.72-6.91,8.55-6.91c6.1,0,8.64,3.59,9,6.92h-2.8c-.55-2.62-2.25-4.61-6.31-4.61-3.58,0-5.56,1.63-5.56,4.39s1.65,3.78,6.46,4.95c7.56,1.84,8.78,4.81,8.78,8.08,0,4.06-3,7.41-9.35,7.41-6.7,0-9.35-3.75-9.87-7.53Z"/></svg>